<?xml version="1.0" standalone="no"?>
<!DOCTYPE svg PUBLIC "-//W3C//DTD SVG 20010904//EN"
 "http://www.w3.org/TR/2001/REC-SVG-20010904/DTD/svg10.dtd">
<svg version="1.0" xmlns="http://www.w3.org/2000/svg"
 width="512.000000pt" height="512.000000pt" viewBox="0 0 512.000000 512.000000"
 preserveAspectRatio="xMidYMid meet">
<metadata>
Created by potrace 1.14, written by Peter Selinger 2001-2017
</metadata>
<g transform="translate(0.000000,512.000000) scale(0.100000,-0.100000)"
fill="#000000" stroke="none">
<path d="M0 2560 l0 -2560 2560 0 2560 0 0 2560 0 2560 -2560 0 -2560 0 0
-2560z m3010 730 c670 -28 1268 -102 1743 -216 l147 -36 -2 -486 -3 -487 -65
-17 c-36 -10 -164 -38 -285 -63 -1250 -254 -3005 -236 -4167 41 l-148 36 0
492 0 492 137 33 c482 113 1105 187 1798 214 188 8 626 6 845 -3z"/>
<path d="M2030 3160 c-401 -18 -783 -53 -1114 -101 -213 -30 -498 -82 -542
-99 l-24 -9 2 -401 3 -400 35 -10 c131 -35 497 -97 765 -129 1031 -124 2274
-100 3225 60 157 27 389 74 395 81 2 2 0 183 -4 403 l-6 400 -80 17 c-368 80
-899 147 -1425 178 -235 15 -1000 20 -1230 10z m1196 -60 c486 -28 986 -91
1339 -171 71 -16 133 -29 137 -29 5 0 7 -156 6 -347 l-3 -348 -120 -27 c-464
-105 -1296 -193 -1770 -186 -112 2 -120 3 -40 5 697 17 1472 105 1888 214 l37
10 -2 331 -3 331 -55 14 c-426 100 -1057 176 -1690 202 l-185 8 141 1 c78 1
222 -3 320 -8z m-146 -50 c363 -18 698 -48 990 -90 144 -21 363 -61 358 -65
-3 -2 -1182 38 -1440 49 l-138 6 12 -26 c11 -23 10 -29 -11 -45 -28 -23 -51
-24 -77 -4 -15 12 -16 16 -5 24 7 5 22 6 34 3 14 -3 18 -1 13 6 -4 7 -13 12
-20 12 -8 0 -19 6 -25 14 -6 8 -22 16 -35 18 -24 5 -24 5 -10 -35 8 -22 14
-41 14 -43 0 -9 -39 -3 -45 6 -3 6 -15 10 -26 10 -10 0 -19 -4 -19 -10 0 -5
-10 -10 -21 -10 -17 0 -20 4 -15 23 19 68 19 67 -3 67 -18 0 -21 -6 -21 -41 0
-50 -15 -79 -39 -79 -17 0 -19 6 -14 60 5 51 3 60 -11 60 -11 0 -16 -9 -16
-27 0 -34 -8 -46 -37 -62 -31 -16 -41 -14 -68 14 -16 15 -25 36 -25 55 0 28
-3 30 -35 30 -33 0 -35 -2 -35 -35 0 -32 2 -35 30 -35 20 0 30 -5 30 -15 0
-11 -12 -15 -50 -15 l-50 0 0 38 c0 20 -4 42 -8 49 -6 9 -108 15 -377 24 -344
10 -423 14 -414 24 6 5 391 36 564 44 242 12 803 12 1045 1z m-2157 -274 c84
-31 117 -90 117 -216 0 -61 -6 -96 -19 -125 -21 -46 -73 -95 -102 -95 -10 0
-19 -6 -19 -13 0 -24 24 -37 67 -37 39 0 43 -2 43 -25 0 -24 -2 -25 -75 -25
-67 0 -79 3 -100 24 -13 13 -27 36 -30 49 -4 15 -16 28 -31 31 -36 9 -88 67
-102 113 -15 49 -16 145 -2 195 30 105 146 162 253 124z m1434 -1 c86 -36 117
-95 118 -220 0 -78 -3 -96 -25 -135 -34 -61 -87 -90 -165 -90 -78 0 -131 29
-165 90 -22 39 -25 57 -25 135 0 126 35 190 122 221 51 18 96 17 140 -1z m569
-4 c59 -27 93 -77 107 -156 21 -122 -18 -226 -98 -265 -25 -12 -45 -23 -45
-25 0 -16 38 -35 71 -35 35 0 39 -3 39 -25 0 -24 -2 -25 -69 -25 -59 0 -74 4
-99 25 -16 14 -33 36 -36 49 -3 14 -17 28 -33 34 -35 12 -68 43 -90 85 -27 49
-25 199 4 252 27 51 52 73 100 91 53 18 101 17 149 -5z m1416 9 c47 -13 104
-76 119 -132 15 -56 7 -184 -14 -225 -53 -102 -209 -126 -297 -47 -49 44 -64
89 -64 185 1 116 40 186 121 215 46 16 86 17 135 4z m-3182 -170 c0 -157 2
-172 20 -190 12 -12 33 -20 55 -20 22 0 43 8 55 20 18 18 20 33 20 191 l0 170
48 -3 47 -3 -3 -180 c-4 -200 -8 -215 -73 -247 -45 -24 -143 -24 -188 0 -70
35 -76 52 -79 253 l-4 179 51 0 51 0 0 -170z m580 135 l0 -35 -90 0 c-79 0
-90 -2 -90 -17 0 -10 -3 -35 -6 -55 l-7 -38 97 0 97 0 -3 -37 -3 -38 -93 -3
-93 -3 3 -56 3 -55 90 -2 90 -1 0 -35 0 -35 -145 0 -145 0 -3 223 -3 222 151
0 150 0 0 -35z m285 23 c74 -33 72 -161 -2 -189 l-24 -9 30 -26 c36 -30 64
-112 59 -171 l-3 -38 -50 0 -50 0 -7 69 c-8 79 -31 119 -71 124 l-26 3 -3 -98
-3 -98 -50 0 -50 0 -3 223 -2 222 114 0 c68 0 126 -5 141 -12z m1127 -164 c3
-160 5 -177 22 -190 26 -19 76 -18 104 2 21 15 22 21 22 190 l0 174 50 0 50 0
0 -171 c0 -201 -8 -230 -74 -260 -50 -23 -143 -25 -191 -5 -66 28 -75 58 -75
259 l0 177 44 0 45 0 3 -176z m578 141 l0 -35 -90 0 -90 0 0 -55 0 -55 90 0
90 0 0 -40 0 -40 -90 0 -90 0 0 -57 0 -58 87 0 88 0 3 -37 3 -38 -145 0 -146
0 0 225 0 225 145 0 145 0 0 -35z m316 2 c18 -21 24 -40 24 -77 0 -44 -4 -52
-34 -76 l-34 -27 27 -28 c33 -32 51 -89 51 -158 l0 -51 -49 0 c-55 0 -61 7
-61 71 0 43 -23 109 -43 121 -7 4 -22 8 -34 8 -21 0 -22 -4 -25 -97 l-3 -98
-50 0 -50 0 -3 223 -2 224 131 -4 c129 -3 131 -3 155 -31z m-1438 -160 c17
-13 15 -52 -4 -71 -19 -20 -68 -21 -83 -2 -19 23 -9 69 18 82 24 12 45 9 69
-9z"/>
<path d="M2432 2933 c4 -36 33 -39 33 -3 0 16 -6 26 -18 28 -15 3 -18 -2 -15
-25z"/>
<path d="M807 2708 c-26 -21 -37 -64 -37 -154 0 -104 16 -149 56 -157 16 -3
40 0 54 6 42 20 51 52 48 170 -3 101 -5 110 -27 128 -27 22 -70 25 -94 7z"/>
<path d="M2243 2710 c-29 -12 -47 -102 -39 -196 7 -91 11 -100 48 -113 65 -23
100 9 113 106 20 151 -32 239 -122 203z"/>
<path d="M2802 2708 c-30 -15 -37 -45 -37 -164 1 -109 8 -128 54 -145 76 -29
121 61 105 209 -10 96 -54 132 -122 100z"/>
<path d="M4229 2701 c-22 -18 -24 -27 -27 -136 -3 -91 -1 -121 12 -139 34 -52
112 -38 133 24 15 44 16 163 3 212 -17 58 -74 77 -121 39z"/>
<path d="M1880 2655 c0 -54 0 -55 29 -55 37 0 61 23 61 59 0 36 -17 51 -57 51
l-33 0 0 -55z"/>
<path d="M3870 2655 c0 -52 1 -55 26 -55 43 0 64 17 64 53 0 42 -15 57 -57 57
l-33 0 0 -55z"/>
<path d="M2530 2571 c-19 -36 14 -70 53 -55 39 14 24 74 -18 74 -14 0 -29 -8
-35 -19z"/>
</g>
</svg>
